<svg width="21" height="21" viewBox="0 0 21 21" fill="none" xmlns="http://www.w3.org/2000/svg">
<path d="M10.5 0.5C16.0078 0.5 20.5 4.99219 20.5 10.5C20.5 16.0469 16.0078 20.5 10.5 20.5C4.95312 20.5 0.5 16.0469 0.5 10.5C0.5 4.99219 4.95312 0.5 10.5 0.5ZM10.5 5.5C8.9375 5.5 7.6875 6.78906 7.6875 8.3125C7.6875 9.875 8.9375 11.125 10.5 11.125C12.0234 11.125 13.3125 9.875 13.3125 8.3125C13.3125 6.78906 12.0234 5.5 10.5 5.5ZM10.5 18C12.5312 18 14.4062 17.1797 15.7734 15.8125C15.1484 14.1719 13.5859 13 11.75 13H9.25C7.375 13 5.8125 14.1719 5.1875 15.8125C6.55469 17.1797 8.42969 18 10.5 18Z" fill="#9CA3AF"/>
</svg>
