<svg width="12" height="11" viewBox="0 0 12 11" fill="none" xmlns="http://www.w3.org/2000/svg">
<path d="M11.4336 5.95898L7.37109 10.0215C7.21875 10.1738 7.01562 10.25 6.8125 10.25C6.58398 10.25 6.38086 10.1738 6.22852 10.0215C5.89844 9.7168 5.89844 9.18359 6.22852 8.87891L8.89453 6.1875H1.125C0.667969 6.1875 0.3125 5.83203 0.3125 5.375C0.3125 4.94336 0.667969 4.5625 1.125 4.5625H8.89453L6.22852 1.89648C5.89844 1.5918 5.89844 1.05859 6.22852 0.753906C6.5332 0.423828 7.06641 0.423828 7.37109 0.753906L11.4336 4.81641C11.7637 5.12109 11.7637 5.6543 11.4336 5.95898Z" fill="#9CA3AF"/>
</svg>
