<svg width="12" height="6" viewBox="0 0 12 6" fill="none" xmlns="http://www.w3.org/2000/svg">
<path d="M6.01337 6C5.72696 5.99994 5.4523 5.89476 5.24981 5.7076L0.929809 1.71577C0.826658 1.62372 0.744381 1.5136 0.687779 1.39184C0.631178 1.27009 0.601385 1.13914 0.600138 1.00663C0.598892 0.87412 0.626218 0.74271 0.680521 0.620065C0.734825 0.49742 0.815018 0.385996 0.916422 0.292295C1.01783 0.198595 1.13841 0.124493 1.27114 0.0743151C1.40387 0.0241369 1.54608 -0.00111378 1.68948 3.76785e-05C1.83288 0.00118914 1.9746 0.028719 2.10637 0.0810209C2.23813 0.133323 2.3573 0.20935 2.45693 0.304665L6.01337 3.59093L9.56981 0.304665C9.7735 0.122879 10.0463 0.0222908 10.3295 0.0245646C10.6127 0.0268383 10.8835 0.131792 11.0838 0.316821C11.284 0.50185 11.3976 0.752151 11.4001 1.01381C11.4025 1.27547 11.2937 1.52756 11.0969 1.71577L6.77693 5.7076C6.57444 5.89476 6.29978 5.99994 6.01337 6V6Z" fill="#4B5563"/>
</svg>
