<svg width="10" height="9" viewBox="0 0 10 9" fill="none" xmlns="http://www.w3.org/2000/svg">
<path d="M8.80859 7.06641C9.13867 7.37109 9.13867 7.9043 8.80859 8.20898C8.65625 8.36133 8.45312 8.4375 8.25 8.4375C8.02148 8.4375 7.81836 8.36133 7.66602 8.20898L5 5.54297L2.30859 8.20898C2.15625 8.36133 1.95312 8.4375 1.75 8.4375C1.52148 8.4375 1.31836 8.36133 1.16602 8.20898C0.835938 7.9043 0.835938 7.37109 1.16602 7.06641L3.83203 4.375L1.16602 1.70898C0.835938 1.4043 0.835938 0.871094 1.16602 0.566406C1.4707 0.236328 2.00391 0.236328 2.30859 0.566406L5 3.23242L7.66602 0.566406C7.9707 0.236328 8.50391 0.236328 8.80859 0.566406C9.13867 0.871094 9.13867 1.4043 8.80859 1.70898L6.14258 4.40039L8.80859 7.06641Z" fill="#1F2A37"/>
</svg>
