<svg width="14" height="14" viewBox="0 0 14 14" fill="none" xmlns="http://www.w3.org/2000/svg">
<path d="M9.69141 0.882812C10.3262 0.248047 11.3672 0.248047 12.002 0.882812L12.9922 1.87305C13.627 2.50781 13.627 3.54883 12.9922 4.18359L11.7734 5.40234L8.47266 2.10156L9.69141 0.882812ZM11.1895 5.98633L5.27344 11.9023C5.01953 12.1562 4.68945 12.3594 4.33398 12.4609L1.26172 13.3496C1.05859 13.4258 0.830078 13.375 0.677734 13.1973C0.5 13.0449 0.449219 12.8164 0.5 12.6133L1.41406 9.54102C1.51562 9.18555 1.71875 8.85547 1.97266 8.60156L7.88867 2.68555L11.1895 5.98633Z" fill="#1F2A37"/>
</svg>
